<?xml version="1.0" encoding="UTF-8"?>
<svg id="b" data-name="Layer 2" xmlns="http://www.w3.org/2000/svg" width="123.74mm" height="30.26mm" viewBox="0 0 350.75 85.78">
  <g id="c" data-name="Layer 1">
    <g>
      <path d="M60.51,32.77h-8.78v-3.44c0-1.54-.2-2.98-.59-4.33-.39-1.34-1-2.54-1.83-3.59-.83-1.05-1.88-1.87-3.17-2.46-1.29-.59-2.84-.88-4.66-.88h-6.01l.84-1.6c.25-.5,.52-1.01,.82-1.51,.29-.5,.65-1.11,1.07-1.81,.42-.7,.98-1.55,1.68-2.56l-5.42-3.02c-.76,1.18-1.38,2.15-1.87,2.92-.49,.77-.88,1.41-1.18,1.93-.29,.52-.55,.99-.78,1.41l-2.23,4.24,3.82,5.5h9.24c.87,0,1.58,.18,2.14,.55,.56,.36,.99,.97,1.28,1.81,.29,.84,.44,1.97,.44,3.4v3.44H21.91v-15.62H12.12c-2.35,0-4.33,.41-5.94,1.22-1.61,.81-2.81,2.02-3.61,3.61-.8,1.6-1.2,3.57-1.2,5.92s.4,4.26,1.2,5.8c.8,1.54,2,2.69,3.61,3.44,1.61,.76,3.59,1.13,5.94,1.13h3.36v1.26c0,1.37-.42,2.39-1.26,3.07s-2.21,1.01-4.12,1.01c-.67,0-1.49-.04-2.46-.13s-2.14-.21-3.51-.38l-.97,5.12c1.26,.28,2.46,.5,3.61,.65,1.15,.15,2.25,.23,3.32,.23,2.38,0,4.45-.38,6.22-1.16,1.76-.77,3.14-1.88,4.12-3.32,.98-1.44,1.47-3.14,1.47-5.1v-1.26h45.02V17.14h-6.43v15.62Zm-48.38,0c-1.04,0-1.88-.11-2.52-.32-.64-.21-1.11-.66-1.39-1.36-.28-.7-.42-1.76-.42-3.19,0-1.54,.16-2.68,.48-3.42,.32-.74,.8-1.23,1.45-1.47,.64-.24,1.44-.36,2.39-.36h3.36v10.12h-3.36Z" style="fill: #3aaa35; stroke: #ffed00; stroke-miterlimit: 10;"/>
      <rect x="60.51" y="8.11" width="6.47" height="5.12" style="fill: #3aaa35; stroke: #ffed00; stroke-miterlimit: 10;"/>
      <path d="M111.18,17.35c-1.39-1.15-2.95-1.97-4.68-2.46-1.74-.49-3.51-.74-5.33-.74-1.32,0-2.67,.1-4.05,.29-1.39,.2-2.73,.43-4.03,.71s-2.5,.56-3.59,.84l.67,4.24c1.01-.08,2.13-.17,3.38-.25,1.25-.08,2.5-.15,3.76-.21,1.26-.06,2.41-.08,3.44-.08,2.04,0,3.7,.31,4.96,.92s2.18,1.62,2.75,3c.57,1.39,.86,3.24,.86,5.56v3.57h-4.75v-1.68c0-1.37-.34-2.63-1.03-3.78-.69-1.15-1.62-2.07-2.81-2.77-1.19-.7-2.53-1.05-4.01-1.05s-2.83,.35-4.05,1.05c-1.22,.7-2.18,1.62-2.88,2.77-.7,1.15-1.05,2.41-1.05,3.78v1.68h-8.74V8.74h-6.38v29.53h42.13v-9.07c0-2.88-.41-5.29-1.24-7.22-.83-1.93-1.93-3.47-3.32-4.62Zm-17.53,15.41v-1.68c0-.64,.14-1.22,.42-1.72,.28-.5,.65-.9,1.11-1.2s.97-.44,1.53-.44c.53,0,1.02,.15,1.47,.44,.45,.29,.81,.69,1.09,1.2,.28,.5,.42,1.08,.42,1.72v1.68h-6.05Z" style="fill: #3aaa35; stroke: #ffed00; stroke-miterlimit: 10;"/>
      <path d="M145.39,38.27V17.14h-6.43v15.62h-8.74v-15.62h-6.43v21.71c0,1.54-.3,2.72-.9,3.53-.6,.81-1.42,1.22-2.46,1.22-.2,0-.5-.01-.92-.04-.42-.03-.85-.04-1.3-.04l-.21,5.42c.48,.03,.94,.06,1.39,.11,.45,.04,.83,.06,1.13,.06,1.93,0,3.63-.43,5.08-1.3,1.46-.87,2.59-2.08,3.4-3.63,.81-1.55,1.22-3.33,1.22-5.31v-.59h15.16Z" style="fill: #3aaa35; stroke: #ffed00; stroke-miterlimit: 10;"/>
      <rect x="138.96" y="42.56" width="6.47" height="5.12" style="fill: #3aaa35; stroke: #ffed00; stroke-miterlimit: 10;"/>
      <polygon points="170.93 15.05 176.68 15.05 176.68 9.92 170.93 9.92 170.21 9.92 164.46 9.92 164.46 15.05 170.21 15.05 170.93 15.05" style="fill: #3aaa35; stroke: #ffed00; stroke-miterlimit: 10;"/>
      <path d="M204.8,21.41c-.83-1.05-1.88-1.87-3.17-2.46-1.29-.59-2.84-.88-4.66-.88h-6.01l.84-1.6c.25-.5,.52-1.01,.82-1.51,.29-.5,.65-1.11,1.07-1.81,.42-.7,.98-1.55,1.68-2.56l-5.42-3.02c-.76,1.18-1.38,2.15-1.87,2.92-.49,.77-.88,1.41-1.18,1.93-.29,.52-.55,.99-.78,1.41l-2.23,4.24,3.82,5.5h9.24c.87,0,1.58,.18,2.14,.55,.56,.36,.99,.97,1.28,1.81,.29,.84,.44,1.97,.44,3.4v3.44h-21.13v-15.62h-9.79c-2.35,0-4.33,.41-5.94,1.22-1.61,.81-2.81,2.02-3.61,3.61-.8,1.6-1.2,3.57-1.2,5.92s.4,4.26,1.2,5.8c.8,1.54,2,2.69,3.61,3.44,1.61,.76,3.59,1.13,5.94,1.13h37.3v-8.95c0-1.54-.2-2.98-.59-4.33-.39-1.34-1-2.54-1.83-3.59Zm-37.4,11.05c-.64-.21-1.11-.66-1.39-1.36s-.42-1.76-.42-3.19c0-1.54,.16-2.68,.48-3.42,.32-.74,.8-1.23,1.45-1.47,.64-.24,1.44-.36,2.39-.36h3.36v10.12h-3.36c-1.04,0-1.88-.11-2.52-.32Z" style="fill: #3aaa35; stroke: #ffed00; stroke-miterlimit: 10;"/>
      <rect x="247.49" y="8.11" width="6.13" height="5.12" style="fill: #3aaa35; stroke: #ffed00; stroke-miterlimit: 10;"/>
      <path d="M262.07,24.12c-.14-1.12-.3-2.31-.48-3.57-.18-1.26-.37-2.39-.57-3.4l-6.34,.97c.25,1.2,.46,2.39,.63,3.55,.17,1.16,.3,2.2,.4,3.11,.1,.91,.15,1.58,.15,2v6.01h-4.49c-.53,0-1.04-.11-1.53-.32-.27-.11-.54-.27-.81-.44,.38-1.42,.58-3.09,.58-5.04v-7.6h-6.43v7.6c0,1.68-.09,2.93-.27,3.76-.18,.83-.51,1.37-.99,1.64-.48,.27-1.15,.4-2.02,.4h-2.98v-15.62h-6.38v4.2h-8.78v-4.2h-6.43v21.71c0,1.54-.3,2.72-.9,3.53-.6,.81-1.42,1.22-2.46,1.22-.2,0-.5-.01-.92-.04-.42-.03-.85-.04-1.3-.04l-.21,5.42c.48,.03,.94,.06,1.39,.11,.45,.04,.83,.06,1.13,.06,1.93,0,3.63-.43,5.08-1.3,1.46-.87,2.59-2.08,3.4-3.63,.81-1.55,1.22-3.33,1.22-5.31v-11.97h8.78v11.38h9.37c2.21,0,4.03-.39,5.46-1.18,.22-.12,.41-.27,.61-.41,.56,.35,1.15,.65,1.77,.89,1.19,.46,2.4,.69,3.63,.69h10.92v-11.51c0-.64-.07-1.53-.21-2.65Z" style="fill: #3aaa35; stroke: #ffed00; stroke-miterlimit: 10;"/>
      <rect x="243.67" y="2.11" width="5.5" height="4.45" style="fill: #3aaa35; stroke: #ffed00; stroke-miterlimit: 10;"/>
      <rect x="239.22" y="8.11" width="6.13" height="5.12" style="fill: #3aaa35; stroke: #ffed00; stroke-miterlimit: 10;"/>
    </g>
    <g>
      <path d="M8.16,76.54c-2.36,0-4.17-.48-5.42-1.43-1.25-.95-1.88-2.34-1.88-4.16,0-.34,.02-.7,.06-1.07,.04-.37,.09-.73,.15-1.07,.06-.34,.11-.65,.17-.91,.06-.27,.1-.47,.13-.61l3.2,.62c-.04,.21-.1,.49-.17,.84-.07,.34-.13,.71-.18,1.08-.05,.38-.08,.74-.08,1.08,0,.75,.16,1.32,.49,1.73,.33,.41,.81,.69,1.43,.85,.62,.16,1.39,.24,2.29,.24h5.54v-7.99h3.29v10.81H8.16Zm-2.41-9.8v-2.62h3.31v2.62h-3.31Zm2.94,0v-2.62h3.31v2.62h-3.31Z" style="fill: #575756;"/>
      <path d="M18.86,76.54v-15.1h3.27v15.1h-3.27Z" style="fill: #575756;"/>
      <path d="M24.88,76.54v-2.81h7.73l-2.15,1.85v-3.24c0-.99-.1-1.75-.3-2.3-.2-.54-.53-.93-.99-1.15-.46-.22-1.09-.33-1.89-.33h-1.74v-2.81h1.74c1.39,0,2.56,.23,3.52,.69,.96,.46,1.69,1.17,2.19,2.14,.5,.97,.75,2.22,.75,3.77v4.21h-8.87Zm8.87,0v-2.81h2.23v2.81h-2.23Zm2.23,0v-2.81c.17,0,.29,.13,.34,.38,.06,.25,.09,.59,.09,1.02s-.03,.77-.09,1.03c-.06,.26-.17,.39-.34,.39Z" style="fill: #575756;"/>
      <path d="M35.98,76.54c-.16,0-.27-.13-.33-.39s-.1-.6-.1-1.03,.03-.77,.1-1.02c.06-.25,.18-.38,.33-.38v2.81Zm0,0v-2.81h5.78l-2,1.65v-9.65h3.29v10.81h-7.07Zm.86,4.66v-2.62h3.31v2.62h-3.31Zm2.94,0v-2.62h3.31v2.62h-3.31Z" style="fill: #575756;"/>
      <path d="M44,82.09c-.16,0-.35-.01-.58-.03-.23-.02-.47-.04-.71-.05l.11-2.77c.23,0,.45,0,.67,.02,.21,.01,.37,.02,.47,.02,.53,0,.95-.21,1.26-.62,.31-.42,.46-1.02,.46-1.8v-11.11h3.29v11.11c0,1.02-.21,1.92-.62,2.72-.42,.79-1,1.41-1.74,1.86-.74,.44-1.61,.67-2.6,.67Z" style="fill: #575756;"/>
      <path d="M55.68,82.09c-.54,0-1.11-.04-1.7-.12-.59-.08-1.2-.19-1.85-.33l.49-2.62c.7,.09,1.3,.15,1.79,.19s.91,.06,1.26,.06c.97,0,1.68-.17,2.11-.52s.64-.87,.64-1.57v-9.11l.67,.47h-2.38c-.49,0-.9,.06-1.22,.18-.33,.12-.58,.37-.74,.75-.16,.38-.25,.96-.25,1.75,0,.73,.07,1.28,.21,1.63,.14,.36,.38,.59,.71,.7,.33,.11,.76,.16,1.29,.16h1.72v2.81h-1.72c-1.2,0-2.22-.19-3.04-.58-.82-.39-1.44-.97-1.85-1.76-.41-.79-.61-1.78-.61-2.96s.2-2.21,.61-3.03c.41-.82,1.02-1.43,1.85-1.85,.82-.42,1.84-.62,3.04-.62h5.01v11.45c0,1-.25,1.87-.75,2.61-.5,.74-1.2,1.3-2.11,1.7-.9,.39-1.96,.59-3.18,.59Zm6.04-5.54v-2.81h2.23v2.81h-2.23Zm2.23,0v-2.81c.17,0,.29,.13,.34,.38,.06,.25,.09,.59,.09,1.02s-.03,.77-.09,1.03c-.06,.26-.17,.39-.34,.39Z" style="fill: #575756;"/>
      <path d="M63.96,76.54c-.16,0-.27-.13-.33-.39s-.1-.6-.1-1.03,.03-.77,.1-1.02c.06-.25,.18-.38,.33-.38v2.81Zm0,0v-2.81h5.78l-2,1.65v-9.65h3.29v10.81h-7.07Zm.86-11.88v-2.62h3.31v2.62h-3.31Zm2.94,0v-2.62h3.31v2.62h-3.31Zm3.27,11.88v-2.81h2.79v2.81h-2.79Zm2.79,0v-2.81c.17,0,.29,.13,.34,.38,.06,.25,.09,.59,.09,1.02s-.03,.77-.09,1.03c-.06,.26-.17,.39-.34,.39Z" style="fill: #575756;"/>
      <path d="M70.27,76.54c-.16,0-.27-.13-.33-.39s-.1-.6-.1-1.03,.03-.77,.1-1.02c.06-.25,.18-.38,.33-.38v2.81Zm0,0v-2.81h2.38v2.81h-2.38Zm2.38,0v-15.1h3.29v15.1h-3.29Z" style="fill: #575756;"/>
      <path d="M79.27,76.54v-15.1h3.27v15.1h-3.27Z" style="fill: #575756;"/>
      <path d="M89.76,82.09c-.54,0-1.11-.04-1.7-.12-.59-.08-1.2-.19-1.85-.33l.49-2.62c.7,.09,1.3,.15,1.79,.19s.91,.06,1.26,.06c.97,0,1.68-.17,2.11-.52s.64-.87,.64-1.57v-9.11l.67,.47h-2.38c-.49,0-.9,.06-1.22,.18-.33,.12-.58,.37-.74,.75-.16,.38-.25,.96-.25,1.75,0,.73,.07,1.28,.21,1.63,.14,.36,.38,.59,.71,.7,.33,.11,.76,.16,1.29,.16h1.72v2.81h-1.72c-1.2,0-2.22-.19-3.04-.58-.82-.39-1.44-.97-1.85-1.76-.41-.79-.61-1.78-.61-2.96s.2-2.21,.61-3.03c.41-.82,1.02-1.43,1.85-1.85,.82-.42,1.84-.62,3.04-.62h5.01v11.45c0,1-.25,1.87-.75,2.61-.5,.74-1.2,1.3-2.11,1.7-.9,.39-1.96,.59-3.18,.59Z" style="fill: #575756;"/>
      <path d="M108.25,76.54c-1.2,0-2.22-.19-3.04-.58-.82-.39-1.44-.97-1.85-1.76-.41-.79-.61-1.78-.61-2.96s.2-2.21,.61-3.03c.41-.82,1.02-1.43,1.85-1.85,.82-.42,1.84-.62,3.04-.62h5.01v9.28h-3.29v-7.02l.67,.56h-2.38c-.49,0-.9,.06-1.22,.18-.33,.12-.58,.37-.74,.75-.16,.38-.25,.96-.25,1.75,0,.73,.07,1.28,.21,1.63,.14,.36,.38,.59,.71,.7,.33,.11,.76,.16,1.29,.16h7.24v2.81h-7.24Zm-2.79-11.88v-2.62h3.31v2.62h-3.31Zm2.94,0v-2.62h3.31v2.62h-3.31Zm7.09,11.88v-2.81c.17,0,.29,.13,.34,.38,.06,.25,.09,.59,.09,1.02s-.03,.77-.09,1.03c-.06,.26-.17,.39-.34,.39Z" style="fill: #575756;"/>
      <path d="M114.31,76.54c-.16,0-.27-.13-.33-.39s-.1-.6-.1-1.03,.03-.77,.1-1.02c.06-.25,.18-.38,.33-.38v2.81Zm-.02,0v-2.81h10.96l-1.33,1.18v-3.72c0-.7-.08-1.25-.23-1.63s-.42-.66-.79-.82c-.38-.16-.91-.24-1.58-.24-.59,0-1.16,.04-1.71,.11-.55,.07-.98,.17-1.3,.3l2.04-1.89c-.09,.31-.17,.72-.25,1.22-.08,.5-.14,1.03-.19,1.58-.05,.55-.08,1.08-.08,1.6,0,.47,.02,.97,.08,1.5,.05,.53,.11,1,.17,1.41,.06,.41,.11,.68,.14,.83l-3.11,.88c-.07-.21-.15-.55-.24-1.01-.09-.46-.16-1-.21-1.62-.06-.62-.09-1.29-.09-1.99s.03-1.39,.1-2.05c.06-.67,.15-1.27,.25-1.81,.1-.54,.19-.97,.28-1.29,.34-.13,.89-.26,1.64-.39s1.58-.19,2.48-.19c1.32,0,2.41,.18,3.28,.54,.87,.36,1.52,.94,1.96,1.74,.44,.8,.66,1.88,.66,3.24v5.33h-12.91Z" style="fill: #575756;"/>
      <path d="M130.53,76.54v-15.1h3.27v15.1h-3.27Zm3.27,0v-2.81h2.38v2.81h-2.38Zm2.38,0v-2.81c.17,0,.29,.13,.34,.38,.06,.25,.09,.59,.09,1.02s-.03,.77-.09,1.03c-.06,.26-.17,.39-.34,.39Z" style="fill: #575756;"/>
      <path d="M136.18,76.54c-.16,0-.27-.13-.33-.39s-.1-.6-.1-1.03,.03-.77,.1-1.02c.06-.25,.18-.38,.33-.38v2.81Zm0,0v-2.81h5.13c.53,0,1.04-.11,1.54-.33,.49-.22,.96-.52,1.39-.89,.43-.37,.81-.78,1.13-1.24s.57-.91,.75-1.39c.18-.47,.27-.92,.27-1.33v-1.42l1.55,2.6c-.72-.39-1.46-.68-2.22-.88-.77-.2-1.49-.3-2.16-.3s-1.39,.1-2.16,.3c-.77,.2-1.51,.49-2.22,.88l1.55-2.6v1.42c0,.42,.09,.86,.27,1.33,.18,.47,.43,.93,.75,1.39,.32,.45,.7,.86,1.13,1.24,.43,.37,.89,.67,1.39,.89,.49,.22,1,.33,1.51,.33h5.03v2.81h-3.8c-1.12,0-2.16-.18-3.14-.54-.97-.36-1.85-.83-2.64-1.43-.79-.59-1.46-1.25-2.03-1.96-.57-.71-1-1.42-1.3-2.13-.3-.71-.45-1.36-.45-1.94v-1.2c.62-.34,1.28-.64,2-.88,.72-.24,1.43-.43,2.15-.55,.72-.12,1.37-.18,1.98-.18s1.26,.06,1.97,.18c.71,.12,1.42,.3,2.15,.55,.72,.24,1.39,.54,2.01,.88v1.2c0,.59-.15,1.23-.45,1.94s-.73,1.42-1.3,2.13c-.57,.71-1.24,1.36-2.03,1.96-.79,.59-1.67,1.07-2.64,1.43-.97,.36-2.02,.54-3.14,.54h-3.93Zm14.61,0v-2.81c.16,0,.27,.13,.33,.38,.06,.25,.1,.59,.1,1.02s-.03,.77-.1,1.03-.18,.39-.33,.39Z" style="fill: #575756;"/>
      <path d="M150.79,76.54c-.16,0-.27-.13-.33-.39s-.1-.6-.1-1.03,.03-.77,.1-1.02c.06-.25,.18-.38,.33-.38v2.81Zm0,0v-2.81h2.38v2.81h-2.38Zm2.38,0v-15.1h3.29v15.1h-3.29Z" style="fill: #575756;"/>
      <path d="M159.79,76.54v-15.1h3.26v15.1h-3.26Z" style="fill: #575756;"/>
      <path d="M177.77,76.54c-2.36,0-4.17-.48-5.42-1.43-1.25-.95-1.88-2.34-1.88-4.16,0-.34,.02-.7,.06-1.07,.04-.37,.09-.73,.15-1.07,.06-.34,.11-.65,.17-.91,.06-.27,.1-.47,.13-.61l3.2,.62c-.04,.21-.1,.49-.17,.84-.07,.34-.13,.71-.18,1.08-.05,.38-.08,.74-.08,1.08,0,.75,.16,1.32,.49,1.73s.81,.69,1.43,.85c.62,.16,1.39,.24,2.29,.24h5.54v-7.99h3.29v10.81h-9.02Zm-2.41-9.8v-2.62h3.31v2.62h-3.31Zm2.94,0v-2.62h3.31v2.62h-3.31Z" style="fill: #575756;"/>
      <path d="M187.44,76.54v-2.81h11.06l-1.55,1.55v-13.83h3.29v15.1h-12.8Zm2.84-2.81v-9.3h3.29v9.3h-3.29Z" style="fill: #575756;"/>
      <path d="M207.1,82.09c-.54,0-1.11-.04-1.7-.12-.59-.08-1.2-.19-1.85-.33l.49-2.62c.7,.09,1.3,.15,1.79,.19,.49,.04,.91,.06,1.26,.06,.97,0,1.68-.17,2.11-.52s.64-.87,.64-1.57v-9.11l.67,.47h-2.38c-.49,0-.9,.06-1.22,.18-.33,.12-.58,.37-.74,.75-.16,.38-.25,.96-.25,1.75,0,.73,.07,1.28,.21,1.63,.14,.36,.38,.59,.71,.7s.76,.16,1.29,.16h1.72v2.81h-1.72c-1.2,0-2.22-.19-3.04-.58-.82-.39-1.44-.97-1.85-1.76-.41-.79-.61-1.78-.61-2.96s.2-2.21,.61-3.03c.41-.82,1.02-1.43,1.85-1.85,.82-.42,1.84-.62,3.04-.62h5.01v11.45c0,1-.25,1.87-.75,2.61-.5,.74-1.2,1.3-2.11,1.7-.9,.39-1.96,.59-3.18,.59Z" style="fill: #575756;"/>
      <path d="M216.46,76.54v-15.1h3.27v15.1h-3.27Zm3.27,0v-2.81h2.38v2.81h-2.38Zm2.38,0v-2.81c.17,0,.29,.13,.34,.38,.06,.25,.09,.59,.09,1.02s-.03,.77-.09,1.03c-.06,.26-.17,.39-.34,.39Z" style="fill: #575756;"/>
      <path d="M222.11,76.54c-.16,0-.27-.13-.33-.39s-.1-.6-.1-1.03,.03-.77,.1-1.02c.06-.25,.18-.38,.33-.38v2.81Zm0,0v-2.81h9.75l-.79,.69v-6.42l.67,.56h-2.38c-.56,0-1,.08-1.32,.23-.32,.15-.55,.41-.69,.78-.14,.37-.2,.9-.2,1.59,0,.76,.07,1.32,.2,1.69s.37,.61,.69,.72c.32,.12,.76,.17,1.32,.17v2.6c-1.2,0-2.22-.17-3.04-.52s-1.44-.9-1.85-1.67c-.41-.77-.61-1.76-.61-3,0-1.16,.2-2.14,.61-2.94,.41-.8,1.02-1.42,1.85-1.84,.82-.42,1.84-.63,3.04-.63h5.01v10.81h-12.25Zm4.98-11.88v-2.62h3.31v2.62h-3.31Zm2.94,0v-2.62h3.31v2.62h-3.31Zm4.32,11.88v-2.81h2.23v2.81h-2.23Zm2.23,0v-2.81c.17,0,.29,.13,.34,.38,.06,.25,.09,.59,.09,1.02s-.03,.77-.09,1.03-.17,.39-.34,.39Z" style="fill: #575756;"/>
      <path d="M235.84,76.54c-.16,0-.27-.13-.33-.39s-.1-.6-.1-1.03,.03-.77,.1-1.02c.06-.25,.18-.38,.33-.38v2.81Zm-.02,0v-2.81h10.96l-1.33,1.18v-3.72c0-.7-.08-1.25-.23-1.63s-.42-.66-.79-.82c-.38-.16-.91-.24-1.58-.24-.59,0-1.16,.04-1.71,.11-.55,.07-.98,.17-1.3,.3l2.04-1.89c-.09,.31-.17,.72-.25,1.22-.08,.5-.14,1.03-.19,1.58-.05,.55-.08,1.08-.08,1.6,0,.47,.02,.97,.08,1.5,.05,.53,.11,1,.17,1.41s.11,.68,.14,.83l-3.11,.88c-.07-.21-.15-.55-.24-1.01-.09-.46-.16-1-.21-1.62-.06-.62-.09-1.29-.09-1.99s.03-1.39,.1-2.05c.06-.67,.15-1.27,.25-1.81,.1-.54,.19-.97,.28-1.29,.34-.13,.89-.26,1.64-.39,.75-.13,1.58-.19,2.48-.19,1.32,0,2.41,.18,3.28,.54,.87,.36,1.52,.94,1.95,1.74,.44,.8,.66,1.88,.66,3.24v5.33h-12.91Zm12.91,0v-2.81h2.23v2.81h-2.23Zm2.23,0v-2.81c.17,0,.29,.13,.34,.38,.06,.25,.09,.59,.09,1.02s-.03,.77-.09,1.03c-.06,.26-.17,.39-.34,.39Z" style="fill: #575756;"/>
      <path d="M250.96,76.54c-.16,0-.27-.13-.33-.39s-.1-.6-.1-1.03,.03-.77,.1-1.02c.06-.25,.18-.38,.33-.38v2.81Zm0,0v-2.81h2.38v2.81h-2.38Zm2.38,0v-15.1h3.29v15.1h-3.29Zm3.29,0v-2.81h2.23v2.81h-2.23Zm2.23,0v-2.81c.17,0,.29,.13,.34,.38,.06,.25,.09,.59,.09,1.02s-.03,.77-.09,1.03c-.06,.26-.17,.39-.34,.39Z" style="fill: #575756;"/>
      <path d="M258.87,76.54c-.16,0-.27-.13-.33-.39s-.1-.6-.1-1.03,.03-.77,.1-1.02c.06-.25,.18-.38,.33-.38v2.81Zm0,0v-2.81h2.38v2.81h-2.38Zm2.38,0v-15.1h3.29v15.1h-3.29Z" style="fill: #575756;"/>
    </g>
    <g>
      <path d="M343.24,15.34L311.76,0l-31.63,14.91-7.95,33.94,21.72,27.41,35.01,.23,21.84-27.31-7.51-33.84Zm-24.78,38.84l-13.71-.1-8.5-10.73,3.11-13.29,12.38-5.84,12.33,6.01,2.94,13.25-8.55,10.7Z" style="fill: #fcea10;"/>
      <path d="M327.81,76.53c-1.33,0-2.64,0-3.95,0-.44,0-.5-.34-.62-.62-.93-2.17-1.85-4.35-2.77-6.53-.15-.35-.25-.68-.76-.71-1.16-.07-1.22-.02-.81,1.08,.74,2,1.45,4.01,2.2,6,.22,.57,.22,.8-.51,.79-6.17-.02-12.33-.03-18.5,0-.77,0-.81-.23-.57-.86,.77-2.02,1.5-4.05,2.21-6.09,.09-.25,.56-.73,.02-.85-.47-.11-1.18-.4-1.51,.4-.63,1.51-1.28,3.01-1.92,4.51-.33,.78-.68,1.55-1,2.34-.12,.28-.21,.54-.59,.54-1.31,0-2.61,0-3.92,0-.05-.39,.16-.62,.29-.87,1.56-3.01,3.14-6,4.69-9.02,.25-.48,.53-.67,1.08-.66,1.87,.03,3.74,.05,5.61,0,.74-.02,.87,.25,.86,.91-.04,1.67,.04,3.33-.03,5-.03,.81,.25,1.05,.99,.94,.11-.02,.24-.02,.35,0,.6,.09,.81-.14,.8-.77-.04-1.75,0-3.51-.03-5.26-.01-.59,.13-.85,.77-.8,.73,.05,1.46,.05,2.19,0,.65-.05,.78,.23,.77,.81-.03,1.72,.03,3.45-.03,5.17-.02,.73,.23,.94,.89,.85,.11-.02,.24-.02,.35,0,.67,.1,.92-.13,.9-.85-.05-1.72,0-3.45-.03-5.17-.01-.6,.14-.82,.78-.81,1.93,.04,3.86,.02,5.79,.01,.37,0,.66,.04,.86,.43,1.69,3.27,3.41,6.52,5.11,9.79,.04,.07,.02,.16,.04,.33Z" style="fill: #5c9445;"/>
      <path d="M338.86,47.81c2.71,.52,5.43,1.05,8.15,1.57,.83,.16,1.66,.32,2.49,.47,.51,.09,.58,.29,.25,.69-.67,.81-1.33,1.63-1.96,2.47-.34,.45-.71,.39-1.16,.26-2.22-.63-4.44-1.24-6.66-1.86-.65-.18-1.49,.27-1.6,.89-.08,.41,.32,.34,.52,.41,2.12,.74,4.25,1.48,6.39,2.16,.73,.23,.68,.43,.25,.97-3.82,4.76-7.63,9.54-11.41,14.33-.51,.65-.75,.58-1.13-.08-1.06-1.81-2.16-3.61-3.28-5.39-.16-.25-.22-.94-.68-.61-.42,.3-1.08,.73-.63,1.51,.48,.84,.93,1.69,1.39,2.54,.7,1.28,1.38,2.58,2.09,3.85,.23,.41,.24,.71-.09,1.09-.67,.77-1.29,1.59-1.91,2.39-.33,.43-.54,.43-.77-.09-1.42-3.24-2.85-6.47-4.29-9.7-.17-.37-.12-.65,.13-.96,1.26-1.57,2.52-3.15,3.76-4.74,.31-.4,.54-.29,.85-.03,1.38,1.12,2.8,2.21,4.17,3.35,.5,.42,.77,.41,1.17-.14,.76-1.05,.79-1.03-.2-1.83-1.25-1.01-2.49-2.03-3.77-3.01-.42-.32-.49-.56-.13-.97,.52-.59,1.01-1.21,1.48-1.85,.33-.45,.57-.41,.98-.08,1.37,1.14,2.8,2.21,4.17,3.35,.43,.36,.65,.38,1.03-.09,.88-1.13,.92-1.11-.22-2.01-1.21-.96-2.42-1.94-3.65-2.87-.46-.35-.47-.61-.1-1.05,1.25-1.51,2.45-3.05,3.67-4.58,.18-.23,.32-.52,.71-.36Z" style="fill: #5c9445;"/>
      <path d="M305.83,11.2c1.58-.58,1.55-.6,1.46-2.09-.14-2.13-.21-4.26-.33-6.39-.03-.48,.12-.74,.57-.94,.88-.38,1.75-.82,2.6-1.26,.53-.27,.79-.25,.77,.46-.13,3.53-.25,7.07-.35,10.6-.01,.34-.15,.53-.44,.67-1.84,.88-3.69,1.76-5.52,2.67-.47,.23-.6,0-.77-.35-.76-1.61-1.57-3.2-2.3-4.82-.27-.6-.55-.68-1.13-.38-1.13,.59-1.16,.57-.6,1.74,.69,1.45,1.39,2.9,2.11,4.33,.23,.47,.17,.72-.34,.92-.73,.3-1.43,.66-2.13,1.03-.44,.24-.66,.15-.87-.3-.75-1.62-1.56-3.21-2.3-4.83-.27-.58-.54-.78-1.09-.37-.16,.12-.36,.2-.55,.26-.55,.18-.61,.45-.35,.97,.8,1.56,1.52,3.16,2.31,4.73,.26,.51,.27,.8-.32,1.07-1.75,.8-3.48,1.66-5.21,2.5-.33,.16-.62,.26-.97,0-2.99-2.24-5.99-4.47-9.1-6.79,1.28-.74,2.54-1.31,3.81-1.84,.35-.15,.57,.23,.8,.43,1.76,1.54,3.52,3.08,5.28,4.61,.41,.35,1.38,.24,1.66-.21,.25-.38-.15-.51-.33-.69-1.56-1.54-3.13-3.07-4.72-4.58-.46-.43-.63-.65,.11-1.01,5.57-2.64,11.12-5.32,16.66-8.01,.58-.28,.79-.25,.85,.47,.2,2.44,.48,4.87,.74,7.37Z" style="fill: #5c9445;"/>
      <path d="M285.28,26.51c.57-1.45,.56-1.44-.62-2.29-1.76-1.26-3.5-2.54-5.26-3.79-.42-.3-.54-.59-.41-1.1,.31-1.15,.55-2.32,.86-3.63,1,.84,1.91,1.6,2.81,2.37,1.91,1.63,3.81,3.28,5.74,4.89,.38,.32,.45,.64,.36,1.07-.45,1.93-.91,3.86-1.33,5.8-.1,.49-.29,.51-.72,.41-1.73-.42-3.47-.78-5.2-1.19-.52-.12-.97-.17-.98,.54,0,.55-.78,1.3,.46,1.55,1.72,.34,3.41,.79,5.12,1.15,.54,.11,.75,.28,.57,.87-.23,.72-.39,1.47-.51,2.22-.09,.6-.37,.68-.91,.55-1.7-.41-3.42-.76-5.11-1.19-.59-.15-.89-.1-.93,.55,0,.03-.02,.06-.03,.08-.31,1.25-.31,1.26,.96,1.55,1.53,.35,3.07,.7,4.61,1.04,.48,.11,.79,.26,.64,.87-.47,1.9-.91,3.8-1.32,5.71-.09,.43-.28,.65-.7,.76-3.42,.88-6.83,1.78-10.24,2.69-.47,.13-.87,.09-.65-.45,.41-1.04,.54-2.14,.82-3.21,.11-.41,.35-.55,.74-.62,2.36-.4,4.71-.83,7.07-1.24,.58-.1,1.11-.93,.96-1.49-.1-.35-.38-.21-.58-.19-2.03,.26-4.05,.53-6.07,.79-.2,.03-.41,.02-.61,.05-.67,.12-.87-.06-.7-.79,1.38-5.94,2.74-11.88,4.07-17.83,.17-.77,.38-.83,1.01-.41,1.77,1.19,3.58,2.32,5.37,3.48,.24,.15,.49,.29,.74,.44Z" style="fill: #5c9445;"/>
      <path d="M293.55,63.55c-1.29,2.11-2.57,4.17-3.8,6.26-.4,.68-.64,.61-1.09,.05-3.81-4.81-7.63-9.61-11.47-14.39-.41-.51-.42-.7,.25-.91,2.06-.65,4.1-1.35,6.14-2.07,.29-.1,.97-.08,.76-.5-.23-.46-.43-1.24-1.39-.95-2.2,.67-4.45,1.21-6.65,1.87-.7,.21-1.13,.09-1.56-.5-.64-.9-1.36-1.74-2.15-2.73,1.42-.27,2.73-.51,4.03-.77,2.26-.44,4.52-.88,6.78-1.35,.6-.12,1-.04,1.4,.49,1.12,1.49,2.3,2.95,3.49,4.39,.39,.47,.29,.72-.13,1.05-1.41,1.09-2.78,2.23-4.19,3.31-.4,.31-.54,.53-.15,.96,1.18,1.29,.63,1.35,2.08,.23,1.25-.96,2.48-1.95,3.69-2.96,.36-.3,.57-.27,.84,.09,.49,.65,1,1.29,1.53,1.91,.34,.4,.31,.64-.12,.98-1.44,1.1-2.82,2.27-4.26,3.38-.45,.34-.43,.57-.09,.97,.91,1.1,.89,1.12,2.02,.23,1.24-.98,2.48-1.95,3.69-2.96,.38-.32,.58-.31,.89,.1,1.19,1.55,2.41,3.08,3.66,4.59,.34,.41,.33,.74,.13,1.19-1.41,3.15-2.8,6.29-4.17,9.46-.26,.61-.46,.65-.86,.13-.6-.79-1.2-1.58-1.86-2.33-.36-.41-.32-.73-.07-1.16,1.05-1.89,2.07-3.79,3.1-5.69,.67-1.24,.66-1.24-.46-2.35Z" style="fill: #5c9445;"/>
      <path d="M312.54,.37c1.21,.58,2.38,1.15,3.56,1.71,.6,.29,.35,.82,.33,1.24-.08,2.19-.17,4.38-.33,6.56-.05,.73,.25,1.03,.84,1.31,.55,.26,.66,.02,.7-.43,.13-1.37,.26-2.73,.39-4.1,.08-.84,.17-1.68,.23-2.53,.05-.74,.27-.92,1.01-.55,3.56,1.76,7.15,3.47,10.73,5.19,1.87,.9,3.74,1.8,5.6,2.7,.92,.45,.93,.46,.22,1.16-1.51,1.47-3.03,2.92-4.52,4.41-.21,.21-.72,.35-.46,.78,.24,.42,1.29,.57,1.62,.28,1.43-1.25,2.87-2.49,4.28-3.76,1.69-1.51,1.68-1.52,3.69-.54,.63,.31,1.26,.6,2.04,.97-1.2,.9-2.3,1.73-3.41,2.56-1.83,1.36-3.67,2.71-5.48,4.09-.46,.35-.83,.39-1.34,.13-1.7-.85-3.42-1.66-5.14-2.46-.48-.22-.57-.46-.33-.95,.8-1.59,1.52-3.22,2.34-4.81,.29-.56,.21-.84-.36-1.03-.22-.07-.43-.18-.63-.3-.45-.28-.68-.17-.91,.33-.71,1.57-1.52,3.09-2.21,4.67-.32,.73-.64,.83-1.3,.43-.57-.35-1.2-.61-1.82-.87-.55-.22-.59-.5-.34-1.01,.8-1.59,1.53-3.22,2.34-4.81,.27-.53,.17-.75-.35-.96-1.54-.61-1.12-.88-1.91,.71-.71,1.41-1.38,2.84-2.04,4.27-.19,.4-.36,.51-.79,.29-1.8-.9-3.63-1.76-5.44-2.63-.31-.15-.52-.33-.53-.71-.11-3.68-.23-7.36-.35-11.04,0-.08,.04-.15,.09-.31Z" style="fill: #5c9445;"/>
      <path d="M343.28,16.18c.31,1.33,.6,2.6,.9,3.87,.1,.41-.18,.57-.45,.76-1.87,1.35-3.72,2.73-5.63,4.03-.62,.43-.71,.87-.53,1.52,.15,.52,.34,.56,.78,.27,1.83-1.21,3.67-2.39,5.51-3.58,.85-.55,.85-.55,1.06,.41,1.35,5.91,2.7,11.83,4.08,17.74,.17,.72,.16,.97-.74,.84-2.22-.35-4.46-.54-6.68-.85-.56-.08-.56,.09-.5,.55,.09,.74,.41,1.07,1.19,1.19,2.19,.32,4.36,.76,6.55,1.13,.57,.1,.94,.26,1.04,.93,.14,.92,.39,1.82,.63,2.73,.15,.58,.15,.87-.62,.66-3.38-.92-6.76-1.8-10.15-2.68-.34-.09-.57-.19-.66-.58-.44-1.99-.91-3.98-1.37-5.97-.1-.41,0-.62,.47-.72,1.63-.34,3.25-.71,4.86-1.11,1.43-.35,1.1-.1,.91-1.47-.09-.69-.39-.88-1.08-.7-1.61,.42-3.24,.75-4.85,1.15-.65,.16-1.04,.12-1.12-.69-.09-.91-.86-2.01-.39-2.64,.41-.56,1.65-.5,2.53-.71,1.08-.26,2.15-.53,3.24-.75,.45-.09,.63-.23,.5-.74-.47-1.77-.07-1.53-1.81-1.14-1.51,.34-3.02,.67-4.52,1.04-.49,.12-.67,0-.77-.48-.42-1.91-.88-3.81-1.32-5.71-.09-.38-.07-.72,.28-1.02,2.76-2.34,5.51-4.7,8.27-7.05,.08-.07,.19-.12,.36-.21Z" style="fill: #5c9445;"/>
      <path d="M332.05,45.33c1.57,.11,3.08,.58,4.59,.97,.68,.18,.29,.63,.04,.93-1.19,1.51-2.4,3.01-3.6,4.51-2.89,3.62-5.78,7.24-8.67,10.87-.65,.82-.86,.82-1.27-.17-.54-1.28-1.37-2.43-1.7-3.81,3.54-4.43,7.07-8.87,10.61-13.3Z" style="fill: #5c9445;"/>
      <path d="M295.58,26.16c-1.34-.68-2.41-1.72-3.51-2.71-.5-.45-.14-.9,.39-1.15,1.31-.64,2.63-1.27,3.94-1.9,4.34-2.09,8.68-4.17,13.02-6.25,1.22-.59,1.6-.36,1.6,.97,0,1.23-.04,2.45-.06,3.68-5.17,2.37-10.27,4.88-15.38,7.37Z" style="fill: #5c9445;"/>
      <path d="M301.75,58.62c-.39,1.44-1.1,2.75-1.85,4.02-.39,.67-.9,.24-1.26-.21-1.42-1.77-2.84-3.55-4.26-5.33-2.43-3.05-4.87-6.11-7.3-9.17-.18-.23-.38-.45-.52-.7-.28-.48-.15-.92,.36-1.04,1.41-.34,2.8-.8,4.26-.89,3.52,4.44,7.05,8.87,10.57,13.31Z" style="fill: #5c9445;"/>
      <path d="M328.55,27.27c.99-1,2.14-1.8,3.24-2.66,.58-.46,1.02-.24,1.22,.59,.45,1.87,.88,3.75,1.3,5.62,.98,4.32,1.96,8.65,2.93,12.97,.22,.99-.1,1.32-1.09,1.11-1.06-.22-2.1-.49-3.16-.72-.38-.08-.61-.28-.73-.63-.42-1.88-.83-3.76-1.26-5.63-.82-3.55-1.65-7.1-2.47-10.65Z" style="fill: #5c9445;"/>
      <path d="M290.86,43.89c-1.35,.56-2.79,.8-4.22,1.04-.87,.15-.81-.58-.7-1.13,.34-1.63,.72-3.25,1.09-4.87,1.04-4.55,2.08-9.1,3.12-13.65,.22-.98,.68-1.15,1.47-.54,.85,.67,1.69,1.35,2.53,2.02,.21,.17,.42,.33,.43,.63-.04,.2-.08,.4-.13,.6-1.2,5.3-2.4,10.6-3.59,15.9Z" style="fill: #5c9445;"/>
      <path d="M312.28,18.79c-.02-1.4-.06-2.8-.04-4.2,0-.68,.41-.91,1.07-.65,.49,.19,.96,.43,1.43,.66,5.23,2.52,10.46,5.04,15.69,7.56,1.23,.59,1.28,1,.17,1.82-.98,.73-1.83,1.63-2.92,2.2-.81-.4-1.61-.81-2.42-1.19-4.32-2.07-8.65-4.13-12.97-6.2Z" style="fill: #5c9445;"/>
      <path d="M320.11,59.28c.88,1.18,1.36,2.56,1.96,3.89,.22,.48-.07,.85-.63,.89-.17,.01-.35,0-.53,0-6.2,0-12.39,0-18.59,0-1.34,0-1.56-.31-.93-1.49,.58-1.1,.88-2.35,1.75-3.29,5.66,0,11.32,0,16.97,0Z" style="fill: #5c9445;"/>
      <path d="M320.11,59.28c-5.66,0-11.32,0-16.97,0,.54-1.73,1.49-3.28,2.23-4.91,.04-.09,.07-.17,.25-.15,3.77,.43,7.55,.14,11.33,.14,.78,0,1.03,.19,1.29,.8,.6,1.38,1.37,2.69,1.88,4.12Z" style="fill: #fefcee;"/>
      <path d="M295.58,26.16c5.11-2.49,10.21-5.01,15.38-7.37,0,1.66,.01,3.33,.03,4.99,0,.34-.05,.51-.47,.66-1.04,.37-2.03,.88-3.02,1.38-2.47,1.25-5.05,2.29-7.43,3.7-.19,.11-.3,.12-.45,0-1.33-1.14-2.82-2.07-4.03-3.35Z" style="fill: #fefcee;"/>
      <path d="M332.05,45.33c-3.54,4.43-7.07,8.87-10.61,13.3-.93-1.52-1.59-3.17-2.39-4.76-.07-.13-.07-.21,.07-.36,2.53-2.71,4.72-5.71,6.99-8.63,.55-.71,.95-.85,1.71-.62,1.39,.42,2.85,.57,4.23,1.06Z" style="fill: #fefcee;"/>
      <path d="M328.55,27.27c.82,3.55,1.65,7.1,2.47,10.65,.43,1.87,.84,3.75,1.26,5.63-.07,.47-.4,.33-.67,.27-1.42-.32-2.83-.67-4.25-.98-.34-.07-.37-.17-.42-.54-.19-1.29-.52-2.56-.81-3.84-.52-2.27-.9-4.59-1.62-6.79-.34-1.03,.1-1.32,.68-1.77,1.13-.88,2.25-1.76,3.37-2.64Z" style="fill: #fefcee;"/>
      <path d="M301.75,58.62c-3.52-4.44-7.05-8.87-10.57-13.31,1.66-.41,3.33-.82,4.99-1.22,.2-.05,.34-.02,.5,.2,2.35,3.16,4.78,6.25,7.36,9.21,.15,.17,.16,.3,.07,.46-.83,1.53-1.37,3.21-2.36,4.66Z" style="fill: #fefcee;"/>
      <path d="M312.28,18.79c4.32,2.07,8.65,4.13,12.97,6.2,.81,.39,1.62,.8,2.42,1.19-1.3,1.22-2.75,2.24-4.13,3.36-.1,.08-.19,.25-.36,.12-1.85-1.45-4.1-2.12-6.16-3.18-1.47-.76-2.92-1.58-4.51-2.07-.35-.11-.26-.34-.26-.54,0-1.69,.01-3.38,.02-5.07Z" style="fill: #fefcee;"/>
      <path d="M290.86,43.89c1.2-5.3,2.4-10.6,3.59-15.9,.04-.2,.08-.4,.13-.6,.34-.06,.53,.19,.75,.37,1,.8,1.98,1.63,3.01,2.39,.48,.36,.62,.6,.4,1.27-.52,1.63-.86,3.32-1.2,4.99-.4,2.02-1.08,3.98-1.26,6.05-.02,.21-.12,.31-.31,.35-1.71,.33-3.37,.88-5.11,1.07Z" style="fill: #fefcee;"/>
    </g>
  </g>
</svg>