<?xml version="1.0" encoding="utf-8"?>
<!-- Generator: Adobe Illustrator 26.3.0, SVG Export Plug-In . SVG Version: 6.00 Build 0)  -->
<svg version="1.1" id="Layer_1" xmlns="http://www.w3.org/2000/svg" xmlns:xlink="http://www.w3.org/1999/xlink" x="0px" y="0px"
	 viewBox="0 0 500 166.6" style="enable-background:new 0 0 500 166.6;" xml:space="preserve">
<style type="text/css">
	.st0{fill:url(#prefix__icon_00000121258690941176024520000013943997953534433447_);}
	.st1{fill:#1E1E1E;}
</style>
<linearGradient id="prefix__icon_00000137132626282997565600000003992849291232117435_" gradientUnits="userSpaceOnUse" x1="-1715.5568" y1="1455.5375" x2="-1618.1267" y2="1554.3375" gradientTransform="matrix(0.37 -0.93 0.93 0.37 -710.56 -2029.65)">
	<stop  offset="0" style="stop-color:#F26522"/>
	<stop  offset="1" style="stop-color:#FFC20E"/>
</linearGradient>
<path id="prefix__icon" style="fill:url(#prefix__icon_00000137132626282997565600000003992849291232117435_);" d="M122.9,123.6
	c-20.4,23.2-50.6,30.8-79.2,19.2C8.1,128.5-9.3,87.9,5,52.2C19.4,16.6,60-0.7,95.6,13.7c0,0,28.3,11.2,35.7,39.6
	c0,0,14.5,42.5-27.7,66.8c0,0-12.6,7-31.1,4.8l-0.3-3.1c29.8,1.8,41.6-27.2,41.6-27.2c16.9-46.7-23.5-61.3-23.5-61.3
	c-27.6-11.2-56.2,1.5-66.9,27.9s3.2,54.1,28.6,67.2c0,0,32.3,19.4,67.5-6C119.5,122.4,122.9,123.6,122.9,123.6z"/>
<g>
	<path class="st1" d="M335.6,37.3h-7.8V26.5h7.8V10h11.7v16.4H358l-3.5,10.9h-7v39.8h-11.7V37.3H335.6L335.6,37.3z M471.6,10H483
		v66.9h-11.4V10z M165.8,67.2c5.1,0,9.5-2.2,12-6.3h12.8c-4.4,11.2-13.2,17.5-24.5,17.5c-7.5,0-13.8-2.6-18.9-7.9
		c-4.8-5-7.5-11.9-7.5-18.6c0-7,2.5-13.4,7.2-18.3c5.1-5.4,11.9-8.5,18.8-8.5c8.8,0,16.6,4.1,21.9,11.4c3.4,4.5,4.8,9.8,4.8,16.6
		c0,0.9-0.1,1.8-0.1,2.5h-40.5C152.6,62.7,157.9,67.2,165.8,67.2z M165.7,35.8c-6.2,0-11.6,4.1-13.5,10.4h27.4
		C177.7,39.4,172.8,35.8,165.7,35.8z M382.5,67.2c5.1,0,9.5-2.2,12-6.3h12.8c-4.4,11.2-13.2,17.5-24.5,17.5
		c-7.5,0-13.8-2.6-18.9-7.9c-4.8-5-7.5-11.9-7.5-18.6c0-7,2.5-13.4,7.2-18.3c5.1-5.4,11.9-8.5,18.8-8.5c8.8,0,16.6,4.1,21.9,11.4
		c3.4,4.5,4.8,9.8,4.8,16.6c0,0.9-0.1,1.8-0.1,2.5h-40.5C369.1,62.7,374.4,67.2,382.5,67.2L382.5,67.2z M382.4,35.8
		c-6.2,0-11.6,4.1-13.5,10.4h27.4C394.4,39.4,389.4,35.8,382.4,35.8z M439.1,67.2c5.1,0,9.5-2.2,12-6.3h12.8
		c-4.4,11.2-13.2,17.5-24.5,17.5c-7.5,0-13.8-2.6-18.9-7.9c-4.8-5-7.5-11.9-7.5-18.6c0-7,2.5-13.4,7.2-18.3
		c5.1-5.4,11.9-8.5,18.8-8.5c8.8,0,16.6,4.1,21.9,11.4c3.4,4.5,4.8,9.8,4.8,16.6c0,0.9-0.1,1.8-0.1,2.5H425
		C425.9,62.7,431.1,67.2,439.1,67.2z M439,35.8c-6.2,0-11.7,4.1-13.5,10.4h27.4C451,39.4,446,35.8,439,35.8z M237.4,26.5l-26.1,39.2
		h22.4l0.1,11.3h-43.6l26-39.6h-20.7V26.5H237.4z M282.4,26.5l-26.3,39.2h22.4l0.1,11.3H235l26-39.6h-20.7V26.5H282.4z M291.5,62.1
		c3.4,3.5,6.9,5.3,11.2,5.3c4.5,0,7.2-2.1,7.2-5.1c0-4-3.8-4.1-10.6-6.3c-9.4-3.2-13.9-7.5-13.9-15.3c0-9.1,7.5-15.8,18.6-15.8
		c6.9,0,12.8,2.6,18.3,8.4l-8.5,6.9c-3.1-3.4-6-5-9.4-5c-3.5,0-5.9,1.8-5.9,4.7c0,3.5,3.4,4.7,10.6,6.9c9.5,2.9,14.1,6.6,14.1,14.8
		c0,9.8-7.6,16.7-20,16.7c-7.5,0-14.2-2.8-19.5-8.1L291.5,62.1L291.5,62.1z"/>
</g>
<g>
	<path class="st1" d="M153,108.5l5.6-5.6l-7-6.9l-5.5,5.7L153,108.5z M155.8,112.1l-5.7,7.6c0,0,1.2,0.3,5.1,9.1
		c0,0-5.4,14.1-17.5,7.6c0,0,5.9,12,11,12c0,0,5.6,1.6,11.3-15.8h102.6l3.8-11.9h-17c0,0-2.8-2.2-4-4.5c0,0,5.7-8.7,16.3-0.1
		c0,0-2.8-13.2-10.1-13.2c0,0-6.7-1.3-12.5,11.3c0,0-1.8,3.2-0.3,6.6h-78.5C160.5,120.9,159.2,115.8,155.8,112.1L155.8,112.1z
		 M288,116.2c0,0-7.6,15.6,1,16.6h14.4l1.6-2.3l1.3,2.3h58c0,0,8.7-15.6-0.3-26.6l-6.2,9.2c0,0,1.6,0.7,2.8,5.4h-50.5l-9.4-18.2
		l-5,9.1l4.5,9.1h-8.1C292.3,120.9,288.9,121.4,288,116.2L288,116.2z M457.2,120.9h-59.9l-9.5-18.2l-5,9.1l4.5,9.1h-8.1
		c0,0-3.4,0.4-4.1-4.7c0,0-7.6,15.6,1,16.6h14.4l1.6-2.3l1.3,2.3h63.1c0,0,2.3,0,4-1.9c0,0,4-6.3,15.8-2.6l6.6-11.4
		c0,0-7,0.9-13.6-2.9l-11.3-6.3c0,0-4.3-2.5-7.2,1.2l-6.7,8.5c0,0,4.1-2.1,7-0.1L457.2,120.9L457.2,120.9z M349.6,142.7l5.5-5.5
		l3.3,3l3.3-3l6.7,6.9l-5.4,5.4l-3.2-3l-3.3,3.2L349.6,142.7z"/>
</g>
</svg>
