<?xml version="1.0" encoding="UTF-8"?>
<svg id="b" data-name="Layer 2" xmlns="http://www.w3.org/2000/svg" width="109.36mm" height="37.23mm" xmlns:xlink="http://www.w3.org/1999/xlink" viewBox="0 0 310 105.53">
  <defs>
    <linearGradient id="d" x1="226.09" y1="43.71" x2="226.14" y2="28.94" gradientTransform="matrix(1, 0, 0, 1, 0, 0)" gradientUnits="userSpaceOnUse">
      <stop offset="0" stop-color="#e30613"/>
      <stop offset=".07" stop-color="#e00613" stop-opacity=".99"/>
      <stop offset=".12" stop-color="#d70713" stop-opacity=".94"/>
      <stop offset=".16" stop-color="#c90814" stop-opacity=".87"/>
      <stop offset=".21" stop-color="#b40b14" stop-opacity=".77"/>
      <stop offset=".25" stop-color="#9a0e15" stop-opacity=".63"/>
      <stop offset=".29" stop-color="#7a1217" stop-opacity=".47"/>
      <stop offset=".33" stop-color="#531618" stop-opacity=".28"/>
      <stop offset=".37" stop-color="#281b1a" stop-opacity=".06"/>
      <stop offset=".38" stop-color="#1d1d1b" stop-opacity="0"/>
    </linearGradient>
  </defs>
  <g id="c" data-name="Layer 1">
    <g>
      <path d="M5.06,96.93v-13.6H13.66v2.58H7.99v2.86h4.56v2.56H7.99v3h5.67v2.6H5.06Z" style="fill: #1d1d1b;"/>
      <path d="M19.3,101.47c-.99,0-1.83-.08-2.52-.23-.69-.15-1.21-.44-1.57-.85-.35-.41-.53-1.01-.53-1.8,0-.35,.04-.65,.13-.92,.09-.27,.23-.52,.43-.77,.2-.25,.45-.5,.76-.75-.17-.15-.31-.35-.43-.61-.11-.26-.17-.54-.17-.85,0-.16,.1-.39,.29-.7,.19-.31,.39-.57,.58-.8-.25-.13-.48-.32-.7-.55s-.41-.55-.56-.95c-.15-.4-.22-.91-.22-1.52,0-1.29,.34-2.2,1.02-2.73,.68-.53,1.69-.79,3.02-.79,.31,0,.65,.02,1.03,.07,.38,.05,.68,.1,.9,.17l3.1-.08v2l-1.3-.02c.11,.15,.2,.33,.28,.56,.07,.23,.11,.5,.11,.82,0,.93-.15,1.65-.44,2.16s-.74,.86-1.33,1.05c-.59,.19-1.35,.29-2.28,.29-.1,0-.23,0-.39-.03-.16-.02-.3-.04-.41-.05-.04,.11-.08,.23-.13,.37-.05,.14-.07,.24-.07,.31,0,.15,.06,.26,.17,.34,.11,.08,.33,.13,.67,.16,.33,.03,.83,.04,1.5,.04,.88,0,1.58,.09,2.09,.27,.52,.18,.89,.49,1.11,.94,.22,.45,.33,1.07,.33,1.87,0,1.2-.4,2.1-1.19,2.69-.79,.59-1.88,.89-3.28,.89Zm-.17-2.22c.72,0,1.23-.08,1.54-.24,.31-.16,.46-.43,.46-.8,0-.28-.06-.49-.17-.63-.11-.14-.29-.23-.55-.27-.25-.04-.6-.06-1.03-.06-.12,0-.27,0-.44-.01s-.34-.01-.5-.02-.31-.01-.44-.02-.23-.02-.3-.03c-.23,.17-.39,.33-.47,.48s-.12,.34-.12,.58c0,.25,.06,.45,.19,.6,.13,.15,.34,.25,.64,.32,.3,.07,.69,.1,1.19,.1Zm-.28-7.68c.49,0,.85-.11,1.07-.33,.22-.22,.32-.58,.32-1.09s-.11-.87-.32-1.09c-.22-.22-.57-.33-1.07-.33s-.83,.11-1.04,.33c-.21,.22-.32,.58-.32,1.09s.1,.87,.32,1.09c.21,.22,.56,.33,1.04,.33Z" style="fill: #1d1d1b;"/>
      <path d="M27.43,101.09l1.19-4.16h-2.19l-2.08-10.06h2.97l1.45,7.48h.43l1.43-7.48h2.84l-2.98,14.22h-3.04Z" style="fill: #1d1d1b;"/>
      <path d="M34.59,101.09v-14.22h2.8l.02,.62c.17-.12,.39-.25,.64-.38,.25-.13,.53-.24,.82-.33,.3-.09,.59-.13,.87-.13,1.26,0,2.16,.44,2.71,1.32,.54,.88,.82,2.19,.82,3.92,0,1.23-.13,2.23-.4,3.01-.27,.78-.7,1.35-1.29,1.72-.59,.37-1.38,.55-2.37,.55-.3,0-.61-.03-.95-.09-.34-.06-.61-.11-.82-.15v4.16h-2.84Zm4.1-6.44c.44,0,.79-.11,1.04-.33,.25-.22,.42-.54,.53-.96,.1-.42,.16-.94,.16-1.55,0-1-.12-1.69-.37-2.06-.25-.37-.61-.56-1.09-.56-.16,0-.34,.02-.53,.07-.19,.05-.37,.1-.55,.17-.17,.07-.32,.13-.44,.2v4.88c.12,.03,.31,.06,.55,.09s.48,.05,.71,.05Z" style="fill: #1d1d1b;"/>
      <path d="M48.1,97.17c-.69,0-1.25-.1-1.69-.31-.43-.21-.74-.57-.94-1.1s-.29-1.27-.29-2.23v-4.14h-1v-2.52h1v-2.5h2.84v2.5h2.19v2.52h-2.19v3.38c0,.45,.02,.81,.06,1.06,.04,.25,.13,.43,.27,.54,.14,.11,.34,.16,.61,.16,.07,0,.19,0,.35-.02,.16-.01,.32-.02,.49-.03,.17,0,.29-.02,.38-.03l.07,2.42c-.31,.07-.68,.13-1.1,.2-.43,.07-.78,.1-1.07,.1Z" style="fill: #1d1d1b;"/>
      <path d="M51.46,85.47v-2.44h2.84v2.44h-2.84Zm0,11.46v-10.06h2.84v10.06h-2.84Z" style="fill: #1d1d1b;"/>
      <path d="M58.69,97.17c-1.01,0-1.77-.27-2.27-.8s-.75-1.35-.75-2.44c0-.77,.13-1.37,.4-1.79,.27-.42,.65-.72,1.16-.91,.51-.19,1.12-.3,1.83-.34l2.08-.18v-.52c0-.4-.1-.68-.31-.85s-.5-.25-.9-.25c-.36,0-.77,.01-1.22,.04-.46,.03-.91,.06-1.35,.1s-.83,.08-1.15,.12l-.09-2.12c.33-.09,.73-.18,1.2-.27,.46-.09,.95-.16,1.46-.22,.51-.06,.98-.09,1.43-.09,.8,0,1.49,.1,2.05,.31,.56,.21,.99,.55,1.29,1.04,.3,.49,.44,1.16,.44,2.03v4.4c.04,.16,.13,.28,.27,.37,.14,.09,.3,.15,.47,.19l-.06,2.04c-.28,.03-.58,.05-.9,.06-.32,.01-.57,0-.75-.02-.32-.04-.6-.12-.82-.25-.23-.13-.4-.26-.51-.39-.2,.09-.46,.2-.78,.32-.32,.12-.67,.22-1.05,.3-.38,.08-.76,.12-1.16,.12Zm.7-2.22c.21,0,.42-.03,.64-.08,.22-.05,.42-.11,.62-.18,.2-.07,.36-.13,.48-.18v-1.98l-1.63,.16c-.35,.04-.6,.16-.76,.35-.16,.19-.24,.46-.24,.81s.07,.6,.22,.8c.15,.2,.37,.3,.67,.3Z" style="fill: #1d1d1b;"/>
      <path d="M65.93,96.93v-10.06h2.82v.62c.2-.13,.43-.26,.7-.39,.27-.13,.56-.23,.86-.32,.3-.09,.59-.13,.86-.13,.88,0,1.56,.16,2.05,.49,.49,.33,.83,.87,1.04,1.62s.31,1.75,.31,2.99v5.18h-2.84v-5c0-.63-.04-1.13-.11-1.52s-.2-.67-.39-.84c-.19-.17-.45-.26-.8-.26-.2,0-.4,.02-.61,.06-.21,.04-.41,.09-.59,.16-.19,.07-.34,.13-.46,.2v7.2h-2.84Z" style="fill: #1d1d1b;"/>
      <path d="M80.45,96.93v-13.6h4.78c1.1,0,2.01,.15,2.73,.46s1.27,.81,1.63,1.51,.55,1.66,.55,2.89-.18,2.17-.55,2.91-.91,1.28-1.63,1.61-1.63,.5-2.73,.5h-1.85v3.72h-2.93Zm2.93-6.28h1.76c.72,0,1.23-.2,1.55-.61,.32-.41,.47-1.02,.47-1.85s-.15-1.43-.46-1.78c-.31-.35-.83-.52-1.56-.52h-1.76v4.76Z" style="fill: #e30613;"/>
      <path d="M95.22,97.17c-1.05,0-1.89-.19-2.51-.56s-1.07-.94-1.33-1.7c-.27-.76-.4-1.72-.4-2.88s.16-2.22,.49-3.01c.33-.79,.81-1.39,1.46-1.78,.64-.39,1.45-.59,2.43-.59,1.43,0,2.51,.37,3.23,1.12,.72,.75,1.08,1.93,1.08,3.54l-.15,1.58h-5.71c.01,.64,.14,1.12,.38,1.43,.24,.31,.66,.47,1.25,.47,.38,0,.81-.01,1.29-.03,.48-.02,.95-.04,1.42-.07,.47-.03,.87-.05,1.2-.08l.06,2.08c-.32,.07-.72,.14-1.2,.21s-.98,.14-1.5,.19c-.52,.05-1.01,.08-1.48,.08Zm-1.43-6.14h3.04c0-.8-.12-1.36-.35-1.67-.23-.31-.61-.47-1.13-.47s-.91,.16-1.16,.49c-.25,.33-.39,.88-.4,1.65Z" style="fill: #e30613;"/>
      <path d="M104.41,97.17c-.69,0-1.25-.1-1.69-.31-.43-.21-.74-.57-.94-1.1s-.29-1.27-.29-2.23v-4.14h-1v-2.52h1v-2.5h2.84v2.5h2.19v2.52h-2.19v3.38c0,.45,.02,.81,.06,1.06,.04,.25,.13,.43,.27,.54,.14,.11,.34,.16,.61,.16,.07,0,.19,0,.35-.02,.16-.01,.32-.02,.49-.03,.17,0,.29-.02,.38-.03l.07,2.42c-.31,.07-.68,.13-1.1,.2-.43,.07-.78,.1-1.07,.1Z" style="fill: #e30613;"/>
      <path d="M107.77,96.93v-10.06h2.84v1.14c.2-.17,.44-.36,.74-.55,.3-.19,.61-.37,.95-.53,.33-.16,.65-.26,.96-.3v2.92c-.3,.04-.61,.12-.95,.23-.33,.11-.65,.24-.95,.38-.3,.14-.55,.27-.76,.39v6.38h-2.84Z" style="fill: #e30613;"/>
      <path d="M118.46,97.17c-1.05,0-1.91-.18-2.57-.55-.66-.37-1.14-.94-1.45-1.73-.3-.79-.45-1.8-.45-3.04s.16-2.22,.47-2.98c.31-.76,.81-1.32,1.47-1.68,.67-.36,1.51-.54,2.52-.54s1.89,.18,2.55,.54c.66,.36,1.15,.92,1.46,1.68,.32,.76,.47,1.75,.47,2.98s-.15,2.25-.45,3.04c-.3,.79-.78,1.36-1.45,1.73-.66,.37-1.52,.55-2.59,.55Zm0-2.52c.46,0,.8-.09,1.03-.28,.23-.19,.38-.49,.46-.9,.08-.41,.12-.95,.12-1.62s-.05-1.21-.15-1.6-.26-.67-.49-.84c-.23-.17-.55-.26-.97-.26s-.73,.09-.96,.26c-.23,.17-.4,.46-.5,.85s-.15,.92-.15,1.59,.04,1.21,.13,1.62,.24,.71,.47,.9c.23,.19,.57,.28,1.01,.28Z" style="fill: #e30613;"/>
      <path d="M124.51,96.93v-14.06h2.84v14.06h-2.84Z" style="fill: #e30613;"/>
      <path d="M133.15,97.17c-1.05,0-1.89-.19-2.51-.56s-1.07-.94-1.33-1.7c-.27-.76-.4-1.72-.4-2.88s.16-2.22,.49-3.01c.33-.79,.81-1.39,1.46-1.78,.64-.39,1.45-.59,2.43-.59,1.43,0,2.51,.37,3.23,1.12,.72,.75,1.08,1.93,1.08,3.54l-.15,1.58h-5.71c.01,.64,.14,1.12,.38,1.43,.24,.31,.66,.47,1.25,.47,.38,0,.81-.01,1.29-.03,.48-.02,.95-.04,1.42-.07,.47-.03,.87-.05,1.2-.08l.06,2.08c-.32,.07-.72,.14-1.2,.21s-.98,.14-1.5,.19c-.52,.05-1.01,.08-1.48,.08Zm-1.43-6.14h3.04c0-.8-.12-1.36-.35-1.67-.23-.31-.61-.47-1.13-.47s-.91,.16-1.16,.49c-.25,.33-.39,.88-.4,1.65Z" style="fill: #e30613;"/>
      <path d="M142.04,97.17c-.8,0-1.43-.19-1.88-.57-.45-.38-.77-.94-.95-1.69-.19-.75-.28-1.69-.28-2.82v-5.22h2.84v5.08c0,.64,.03,1.15,.09,1.52,.06,.37,.19,.64,.37,.79s.45,.23,.8,.23c.32,0,.63-.04,.93-.13,.3-.09,.53-.18,.7-.27v-7.22h2.84v10.06h-2.82v-.58c-.42,.24-.83,.44-1.23,.59-.4,.15-.87,.23-1.4,.23Z" style="fill: #e30613;"/>
      <path d="M149.31,96.93v-10.06h2.82v.62c.28-.19,.66-.37,1.13-.56,.47-.19,.92-.28,1.35-.28,.56,0,1.01,.08,1.36,.25,.35,.17,.64,.4,.86,.71,.22-.15,.5-.29,.82-.44,.33-.15,.68-.27,1.07-.37,.38-.1,.76-.15,1.13-.15,.93,0,1.64,.18,2.13,.53,.49,.35,.84,.91,1.03,1.66,.19,.75,.29,1.72,.29,2.89v5.2h-2.82v-4.9c0-.63-.03-1.14-.09-1.54-.06-.4-.19-.7-.37-.89-.19-.19-.45-.29-.8-.29-.31,0-.62,.05-.93,.14-.31,.09-.55,.19-.72,.28,.07,.24,.12,.57,.15,.99,.02,.42,.04,.85,.04,1.29v4.92h-2.84v-4.86c0-.65-.03-1.18-.09-1.58-.06-.4-.18-.7-.36-.89-.18-.19-.44-.29-.79-.29-.3,0-.59,.04-.88,.13-.29,.09-.51,.18-.66,.27v7.22h-2.84Z" style="fill: #e30613;"/>
      <path d="M169.2,96.93v-13.6h2.93v5.52h4.37v-5.52h2.93v13.6h-2.93v-5.44h-4.37v5.44h-2.93Z" style="fill: #1d1d1b;"/>
      <path d="M185.44,97.17c-1.05,0-1.91-.18-2.57-.55-.66-.37-1.14-.94-1.45-1.73-.3-.79-.45-1.8-.45-3.04s.16-2.22,.47-2.98c.31-.76,.81-1.32,1.47-1.68,.67-.36,1.51-.54,2.52-.54s1.89,.18,2.55,.54c.66,.36,1.15,.92,1.46,1.68,.32,.76,.47,1.75,.47,2.98s-.15,2.25-.45,3.04c-.3,.79-.78,1.36-1.45,1.73-.66,.37-1.52,.55-2.59,.55Zm0-2.52c.46,0,.8-.09,1.03-.28,.23-.19,.38-.49,.46-.9,.08-.41,.12-.95,.12-1.62s-.05-1.21-.15-1.6-.26-.67-.49-.84c-.23-.17-.55-.26-.97-.26s-.73,.09-.96,.26c-.23,.17-.4,.46-.5,.85s-.15,.92-.15,1.59,.04,1.21,.13,1.62,.24,.71,.47,.9c.23,.19,.57,.28,1.01,.28Z" style="fill: #1d1d1b;"/>
      <path d="M191.48,96.93v-14.06h2.84v14.06h-2.84Z" style="fill: #1d1d1b;"/>
      <path d="M199.39,97.17c-.47,0-.9-.06-1.28-.19-.38-.13-.71-.32-.99-.58-.28-.26-.51-.59-.7-1-.19-.41-.32-.9-.42-1.47s-.14-1.23-.14-1.98c0-1.13,.13-2.09,.4-2.88,.27-.79,.69-1.39,1.28-1.8,.59-.41,1.36-.62,2.33-.62,.27,0,.59,.02,.96,.06,.37,.04,.67,.08,.89,.12v-3.96h2.84v14.06h-2.8l-.02-.54c-.17,.11-.39,.22-.66,.34-.27,.12-.54,.22-.83,.31-.29,.09-.58,.13-.86,.13Zm.78-2.54c.19,0,.38-.02,.57-.07,.2-.05,.38-.1,.56-.16,.17-.06,.32-.11,.43-.15v-4.94c-.1-.03-.23-.05-.39-.07-.16-.02-.33-.04-.5-.05-.17-.01-.33-.02-.46-.02-.43,0-.77,.11-1,.34-.23,.23-.4,.54-.49,.95-.09,.41-.14,.9-.14,1.49,0,.51,.03,.93,.09,1.27s.15,.61,.28,.82c.12,.21,.27,.36,.45,.45,.18,.09,.38,.14,.6,.14Z" style="fill: #1d1d1b;"/>
      <path d="M206.4,85.47v-2.44h2.84v2.44h-2.84Zm0,11.46v-10.06h2.84v10.06h-2.84Z" style="fill: #1d1d1b;"/>
      <path d="M211.05,96.93v-10.06h2.82v.62c.2-.13,.43-.26,.7-.39,.27-.13,.56-.23,.86-.32,.3-.09,.59-.13,.86-.13,.88,0,1.56,.16,2.05,.49,.49,.33,.83,.87,1.04,1.62s.31,1.75,.31,2.99v5.18h-2.84v-5c0-.63-.04-1.13-.11-1.52s-.2-.67-.39-.84c-.19-.17-.45-.26-.8-.26-.2,0-.4,.02-.61,.06-.21,.04-.41,.09-.59,.16-.19,.07-.34,.13-.46,.2v7.2h-2.84Z" style="fill: #1d1d1b;"/>
      <path d="M225.68,101.47c-.99,0-1.83-.08-2.52-.23-.69-.15-1.21-.44-1.57-.85-.35-.41-.53-1.01-.53-1.8,0-.35,.04-.65,.13-.92,.09-.27,.23-.52,.43-.77,.2-.25,.45-.5,.76-.75-.17-.15-.31-.35-.43-.61-.11-.26-.17-.54-.17-.85,0-.16,.1-.39,.29-.7,.19-.31,.39-.57,.58-.8-.25-.13-.48-.32-.7-.55s-.41-.55-.56-.95c-.15-.4-.22-.91-.22-1.52,0-1.29,.34-2.2,1.02-2.73,.68-.53,1.69-.79,3.02-.79,.31,0,.65,.02,1.03,.07,.38,.05,.68,.1,.9,.17l3.1-.08v2l-1.3-.02c.11,.15,.2,.33,.28,.56,.07,.23,.11,.5,.11,.82,0,.93-.15,1.65-.44,2.16s-.74,.86-1.33,1.05c-.59,.19-1.35,.29-2.28,.29-.1,0-.23,0-.39-.03-.16-.02-.3-.04-.41-.05-.04,.11-.08,.23-.13,.37-.05,.14-.07,.24-.07,.31,0,.15,.06,.26,.17,.34,.11,.08,.33,.13,.67,.16,.33,.03,.83,.04,1.5,.04,.88,0,1.58,.09,2.09,.27,.52,.18,.89,.49,1.11,.94,.22,.45,.33,1.07,.33,1.87,0,1.2-.4,2.1-1.19,2.69-.79,.59-1.88,.89-3.28,.89Zm-.17-2.22c.72,0,1.23-.08,1.54-.24,.31-.16,.46-.43,.46-.8,0-.28-.06-.49-.17-.63-.11-.14-.29-.23-.55-.27-.25-.04-.6-.06-1.03-.06-.12,0-.27,0-.44-.01s-.34-.01-.5-.02-.31-.01-.44-.02-.23-.02-.3-.03c-.23,.17-.39,.33-.47,.48s-.12,.34-.12,.58c0,.25,.06,.45,.19,.6,.13,.15,.34,.25,.64,.32,.3,.07,.69,.1,1.19,.1Zm-.28-7.68c.49,0,.85-.11,1.07-.33,.22-.22,.32-.58,.32-1.09s-.11-.87-.32-1.09c-.22-.22-.57-.33-1.07-.33s-.83,.11-1.04,.33c-.21,.22-.32,.58-.32,1.09s.1,.87,.32,1.09c.21,.22,.56,.33,1.04,.33Z" style="fill: #1d1d1b;"/>
      <path d="M240.23,97.17c-.99,0-1.81-.13-2.46-.4-.65-.27-1.16-.68-1.54-1.25-.38-.57-.64-1.29-.8-2.18s-.23-1.96-.23-3.21,.08-2.33,.23-3.22c.15-.89,.42-1.62,.8-2.18,.38-.56,.9-.97,1.56-1.24,.66-.27,1.5-.4,2.53-.4,.4,0,.82,.02,1.26,.07s.88,.11,1.31,.19,.79,.16,1.1,.24l-.07,2.48c-.25-.04-.55-.08-.91-.12-.36-.04-.73-.08-1.1-.11-.38-.03-.73-.05-1.07-.05-.56,0-1.01,.07-1.35,.22-.35,.15-.61,.39-.81,.73-.19,.34-.32,.78-.39,1.33-.07,.55-.1,1.23-.1,2.06s.03,1.5,.1,2.05c.07,.55,.2,1,.39,1.33,.19,.33,.46,.57,.81,.72,.35,.15,.8,.22,1.37,.22,.49,0,1.03-.03,1.62-.08,.59-.05,1.07-.1,1.46-.14l.06,2.46c-.28,.07-.63,.14-1.05,.22-.41,.08-.86,.14-1.33,.19-.48,.05-.94,.07-1.38,.07Z" style="fill: #1d1d1b;"/>
      <path d="M249.39,97.17c-1.05,0-1.91-.18-2.57-.55-.66-.37-1.14-.94-1.45-1.73-.3-.79-.45-1.8-.45-3.04s.16-2.22,.47-2.98c.31-.76,.81-1.32,1.47-1.68,.67-.36,1.51-.54,2.52-.54s1.89,.18,2.55,.54c.66,.36,1.15,.92,1.46,1.68,.32,.76,.47,1.75,.47,2.98s-.15,2.25-.45,3.04c-.3,.79-.78,1.36-1.45,1.73-.66,.37-1.52,.55-2.59,.55Zm0-2.52c.46,0,.8-.09,1.03-.28,.23-.19,.38-.49,.46-.9,.08-.41,.12-.95,.12-1.62s-.05-1.21-.15-1.6-.26-.67-.49-.84c-.23-.17-.55-.26-.97-.26s-.73,.09-.96,.26c-.23,.17-.4,.46-.5,.85s-.15,.92-.15,1.59,.04,1.21,.13,1.62,.24,.71,.47,.9c.23,.19,.57,.28,1.01,.28Z" style="fill: #1d1d1b;"/>
      <path d="M255.37,96.93v-10.06h2.82v.62c.28-.19,.66-.37,1.13-.56,.47-.19,.92-.28,1.35-.28,.56,0,1.01,.08,1.36,.25,.35,.17,.64,.4,.86,.71,.22-.15,.5-.29,.82-.44,.33-.15,.68-.27,1.07-.37,.38-.1,.76-.15,1.13-.15,.93,0,1.64,.18,2.13,.53,.49,.35,.84,.91,1.03,1.66,.19,.75,.29,1.72,.29,2.89v5.2h-2.82v-4.9c0-.63-.03-1.14-.09-1.54-.06-.4-.19-.7-.37-.89-.19-.19-.45-.29-.8-.29-.31,0-.62,.05-.93,.14-.31,.09-.55,.19-.72,.28,.07,.24,.12,.57,.15,.99,.02,.42,.04,.85,.04,1.29v4.92h-2.84v-4.86c0-.65-.03-1.18-.09-1.58-.06-.4-.18-.7-.36-.89-.18-.19-.44-.29-.79-.29-.3,0-.59,.04-.88,.13-.29,.09-.51,.18-.66,.27v7.22h-2.84Z" style="fill: #1d1d1b;"/>
      <path d="M271.11,101.09v-14.22h2.8l.02,.62c.17-.12,.39-.25,.64-.38,.25-.13,.53-.24,.82-.33,.3-.09,.59-.13,.87-.13,1.26,0,2.16,.44,2.71,1.32,.54,.88,.82,2.19,.82,3.92,0,1.23-.13,2.23-.4,3.01-.27,.78-.7,1.35-1.29,1.72-.59,.37-1.38,.55-2.37,.55-.3,0-.61-.03-.95-.09-.34-.06-.61-.11-.82-.15v4.16h-2.84Zm4.1-6.44c.44,0,.79-.11,1.04-.33,.25-.22,.42-.54,.53-.96,.1-.42,.16-.94,.16-1.55,0-1-.12-1.69-.37-2.06-.25-.37-.61-.56-1.09-.56-.16,0-.34,.02-.53,.07-.19,.05-.37,.1-.55,.17-.17,.07-.32,.13-.44,.2v4.88c.12,.03,.31,.06,.55,.09s.48,.05,.71,.05Z" style="fill: #1d1d1b;"/>
      <path d="M283.88,97.17c-1.01,0-1.77-.27-2.27-.8s-.75-1.35-.75-2.44c0-.77,.13-1.37,.4-1.79,.27-.42,.65-.72,1.16-.91,.51-.19,1.12-.3,1.83-.34l2.08-.18v-.52c0-.4-.1-.68-.31-.85s-.5-.25-.9-.25c-.36,0-.77,.01-1.22,.04-.46,.03-.91,.06-1.35,.1s-.83,.08-1.15,.12l-.09-2.12c.33-.09,.73-.18,1.2-.27,.46-.09,.95-.16,1.46-.22,.51-.06,.98-.09,1.43-.09,.8,0,1.49,.1,2.05,.31,.56,.21,.99,.55,1.29,1.04,.3,.49,.44,1.16,.44,2.03v4.4c.04,.16,.13,.28,.27,.37,.14,.09,.3,.15,.47,.19l-.06,2.04c-.28,.03-.58,.05-.9,.06-.32,.01-.57,0-.75-.02-.32-.04-.6-.12-.82-.25-.23-.13-.4-.26-.51-.39-.2,.09-.46,.2-.78,.32-.32,.12-.67,.22-1.05,.3-.38,.08-.76,.12-1.16,.12Zm.7-2.22c.21,0,.42-.03,.64-.08,.22-.05,.42-.11,.62-.18,.2-.07,.36-.13,.48-.18v-1.98l-1.63,.16c-.35,.04-.6,.16-.76,.35-.16,.19-.24,.46-.24,.81s.07,.6,.22,.8c.15,.2,.37,.3,.67,.3Z" style="fill: #1d1d1b;"/>
      <path d="M291.13,96.93v-10.06h2.82v.62c.2-.13,.43-.26,.7-.39,.27-.13,.56-.23,.86-.32,.3-.09,.59-.13,.86-.13,.88,0,1.56,.16,2.05,.49,.49,.33,.83,.87,1.04,1.62s.31,1.75,.31,2.99v5.18h-2.84v-5c0-.63-.04-1.13-.11-1.52s-.2-.67-.39-.84c-.19-.17-.45-.26-.8-.26-.2,0-.4,.02-.61,.06-.21,.04-.41,.09-.59,.16-.19,.07-.34,.13-.46,.2v7.2h-2.84Z" style="fill: #1d1d1b;"/>
      <path d="M303.75,101.09l1.19-4.16h-2.19l-2.08-10.06h2.97l1.45,7.48h.43l1.43-7.48h2.84l-2.98,14.22h-3.04Z" style="fill: #1d1d1b;"/>
    </g>
    <path d="M48.11,67.83c-4.11,0-7.48-.5-10.09-1.49-2.61-.99-4.67-2.51-6.17-4.54-1.5-2.03-2.55-4.57-3.16-7.59-.6-3.03-.9-6.55-.9-10.57,0-4.3,.35-7.99,1.04-11.06s1.84-5.59,3.43-7.56c1.59-1.96,3.69-3.42,6.28-4.37,2.59-.95,5.76-1.42,9.5-1.42,1.85,0,3.82,.1,5.93,.31,2.1,.21,4.1,.47,6,.8,1.89,.32,3.49,.65,4.78,.97l-.07,8.46c-1.34-.18-2.95-.36-4.82-.52-1.87-.16-3.76-.31-5.65-.45-1.9-.14-3.61-.21-5.13-.21-2.22,0-4,.29-5.34,.87-1.34,.58-2.36,1.47-3.05,2.67-.69,1.2-1.17,2.75-1.42,4.65-.25,1.9-.38,4.18-.38,6.87,0,3.42,.25,6.24,.76,8.46,.51,2.22,1.47,3.87,2.88,4.96,1.41,1.09,3.46,1.63,6.14,1.63,.6,0,1.26-.02,1.98-.07,.72-.04,1.42-.1,2.11-.17s1.29-.13,1.8-.17v-8.88h-4.85v-8.18h15.26v24.82c-1.11,.14-2.4,.32-3.88,.55-1.48,.23-3.01,.44-4.58,.62-1.57,.18-3.1,.33-4.58,.45-1.48,.11-2.75,.17-3.81,.17Z" style="fill: #1d1d1b;"/>
    <path d="M68.43,67.21l11.65-47.15h18.31l11.72,47.15h-11.03l-2.36-8.67h-15.26l-2.22,8.67h-10.82Zm14.63-17.33h12.27l-4.78-21.08h-2.64l-4.85,21.08Z" style="fill: #1d1d1b;"/>
    <path d="M114.54,67.21V20.06h13.18l14.21,29.96h1.18V20.06h10.96v47.15h-13.04l-14.35-30.65h-1.18v30.65h-10.96Z" style="fill: #1d1d1b;"/>
    <path d="M181.11,68.04c-5.04,0-9.07-.88-12.1-2.63-3.03-1.76-5.21-4.44-6.55-8.04-1.34-3.61-2.01-8.14-2.01-13.59s.67-10.07,2.01-13.7c1.34-3.63,3.52-6.34,6.55-8.15,3.03-1.8,7.06-2.7,12.1-2.7s9.06,.9,12.07,2.7c3,1.8,5.18,4.52,6.52,8.15,1.34,3.63,2.01,8.19,2.01,13.7s-.67,10.11-2.01,13.7c-1.34,3.58-3.5,6.24-6.48,7.97s-7.02,2.6-12.1,2.6Zm0-9.15c2.68,0,4.69-.55,6.03-1.66,1.34-1.11,2.24-2.8,2.7-5.06,.46-2.26,.69-5.06,.69-8.39s-.23-6.15-.69-8.46c-.46-2.31-1.36-4.06-2.7-5.24-1.34-1.18-3.35-1.77-6.03-1.77s-4.64,.59-6,1.77c-1.36,1.18-2.29,2.91-2.77,5.2s-.73,5.12-.73,8.49,.24,6.06,.73,8.32c.49,2.27,1.4,3.96,2.74,5.1,1.34,1.13,3.35,1.7,6.03,1.7Z" style="fill: #1d1d1b;"/>
    <path d="M208.01,67.21V20.06h17.89c4.11,0,7.52,.53,10.23,1.59,2.7,1.06,4.74,2.81,6.1,5.24,1.36,2.43,2.05,5.77,2.05,10.02s-.68,7.52-2.05,10.09c-1.36,2.57-3.4,4.43-6.1,5.58-2.7,1.16-6.11,1.73-10.23,1.73h-6.93v12.9h-10.96Zm10.96-21.77h6.59c2.68,0,4.61-.7,5.79-2.12,1.18-1.41,1.77-3.55,1.77-6.41s-.58-4.97-1.73-6.17c-1.16-1.2-3.1-1.8-5.82-1.8h-6.59v16.5Z" style="fill: #1d1d1b;"/>
    <path d="M208.01,67.21V20.06h17.89c4.11,0,7.52,.53,10.23,1.59,2.7,1.06,4.74,2.81,6.1,5.24,1.36,2.43,2.05,5.77,2.05,10.02s-.68,7.52-2.05,10.09c-1.36,2.57-3.4,4.43-6.1,5.58-2.7,1.16-6.11,1.73-10.23,1.73h-6.93v12.9h-10.96Zm10.96-21.77h6.59c2.68,0,4.61-.7,5.79-2.12,1.18-1.41,1.77-3.55,1.77-6.41s-.58-4.97-1.73-6.17c-1.16-1.2-3.1-1.8-5.82-1.8h-6.59v16.5Z" style="fill: url(#d);"/>
    <path d="M249.75,67.21V20.06h32.17v8.95h-21.22v9.92h17.06v8.88h-17.06v10.4h21.22v9.01h-32.17Z" style="fill: #1d1d1b;"/>
  </g>
</svg>